<svg width="20.000000" height="20.000000" viewBox="0 0 20 20" fill="none" xmlns="http://www.w3.org/2000/svg" xmlns:xlink="http://www.w3.org/1999/xlink">
	<desc>
			Created with Pixso.
	</desc>
	<defs/>
	<path id="Vector" d="M8.91309 0.0610352C11.2129 -0.19873 13.5957 0.376465 15.5176 1.66724C17.0488 2.67822 18.2861 4.12109 19.0635 5.78247C19.9629 7.72388 20.2402 9.95923 19.7822 12.054C19.2725 14.5479 17.7539 16.8135 15.6533 18.2476C12.5342 20.4526 8.12988 20.5884 4.87695 18.5891C2.57129 17.2178 0.854492 14.8845 0.262695 12.2637C-0.254883 10.1038 0.00292969 7.77808 0.942383 5.77002C2.37402 2.65698 5.50098 0.401367 8.91309 0.0610352ZM8.6709 1.35718C6.05176 1.74023 3.6709 3.40771 2.38184 5.71606C1.55176 7.18262 1.16309 8.89429 1.27344 10.5759C1.40625 12.7786 2.42773 14.9058 4.0459 16.4014C5.58008 17.8406 7.64648 18.6995 9.75 18.7461C11.6904 18.8101 13.6445 18.1936 15.1992 17.032C16.8887 15.7837 18.1064 13.9099 18.5479 11.8542C18.9814 9.87769 18.6914 7.75293 17.752 5.96338C16.9209 4.35962 15.5762 3.03101 13.9697 2.21094C12.3535 1.37354 10.4668 1.08325 8.6709 1.35718Z" fill="#416A88" fill-opacity="1.000000" fill-rule="nonzero"/>
	<path id="Vector" d="M12.9072 5.94824C13.3789 5.48486 13.8369 4.90576 14.5352 4.80273C15.4316 4.60815 16.3975 5.1582 16.6973 6.02222C16.9912 6.73926 16.749 7.58691 16.2021 8.11572C14.2793 10.042 12.3516 11.9646 10.4307 13.8936C10.0508 14.2754 9.66113 14.7061 9.11426 14.834C8.45898 15.02 7.72949 14.8052 7.25195 14.3293C6.17871 13.2681 5.12207 12.1907 4.04785 11.1321C3.64453 10.759 3.34082 10.2554 3.32031 9.69678C3.25 8.81128 3.88672 7.93237 4.75 7.72632C5.3623 7.57178 6.05176 7.72119 6.52148 8.15332C7.24316 8.81885 7.89551 9.55737 8.62012 10.2202C10.0674 8.81519 11.4756 7.36963 12.9072 5.94824ZM14.5781 6.10767C14.4512 6.18799 14.3408 6.29102 14.2324 6.39526C12.5898 8.05786 10.9238 9.698 9.28223 11.363C9.09375 11.5339 8.89844 11.7588 8.62012 11.7473C8.34082 11.7588 8.14551 11.5339 7.95801 11.3618C7.2959 10.6851 6.61914 10.0208 5.95605 9.34375C5.75195 9.15283 5.53711 8.90039 5.22949 8.91943C4.87793 8.90552 4.56934 9.2207 4.56836 9.5686C4.54492 9.84863 4.75781 10.0571 4.93359 10.2441C5.94141 11.2451 6.94629 12.2485 7.94434 13.2581C8.13281 13.4338 8.33887 13.6511 8.62012 13.6375C8.89941 13.6499 9.10645 13.4338 9.2959 13.2593C11.2764 11.2664 13.2646 9.27979 15.2539 7.29443C15.4434 7.10352 15.626 6.84985 15.5557 6.56348C15.4951 6.12646 14.9482 5.88525 14.5781 6.10767Z" fill="#416A88" fill-opacity="1.000000" fill-rule="nonzero"/>
</svg>
