<svg width="62" height="40" viewBox="0 0 62 40" fill="none" xmlns="http://www.w3.org/2000/svg">
<path fill-rule="evenodd" clip-rule="evenodd" d="M15.3669 8.47929C16.3016 8.47929 16.3016 9.94852 15.3669 9.94852H9.73045L8.95824 12.9303H14.1898C15.1246 12.9303 15.1246 14.3996 14.1898 14.3996H8.57773L7.80546 17.3814H13.0129C13.9477 17.3814 13.9477 18.8507 13.0129 18.8507H7.42488L5.4887 26.3263H42.2602L48.698 1.46923H11.9266L10.1111 8.47929H15.3669ZM8.26227 9.94852H3.05496C2.12018 9.94852 2.12018 8.47929 3.05496 8.47929H8.64292L10.6977 0.54515C10.7824 0.217146 11.0694 0.000736881 11.3827 0.000884298L49.6224 0C50.0849 0 50.4445 0.452202 50.297 0.963961L47.8184 10.5345H55.537C56.1222 10.5345 56.6434 10.6821 57.0776 10.963L57.0789 10.961C57.526 11.2502 57.865 11.6736 58.0729 12.2156L61.7564 21.8131C62.0606 22.6058 62.0662 23.4079 61.8493 24.2459L60.3361 30.0883C61.978 30.4907 60.8192 33.1254 60.2814 35.2049C60.1852 35.5774 59.9559 35.9113 59.6647 36.1492V36.1521C59.058 36.6468 58.4379 36.544 57.7534 36.5508C56.5354 36.5628 55.5525 36.629 55.4364 35.4215L53.3431 35.4212C51.7912 39.7389 46.1963 41.5696 43.8962 38.3882C43.2985 37.5616 43.0415 36.5219 43.1396 35.4244H18.3524C17.9206 36.623 17.1251 37.6953 16.1426 38.497V38.4999C12.3828 41.5681 7.7739 39.6256 8.15006 35.4244C7.32856 35.4244 4.93329 35.5027 4.28583 35.3232C2.84073 34.9228 2.17411 33.4579 2.56132 31.961L5.9567 18.8508H0.701086C-0.233695 18.8508 -0.233695 17.3816 0.701086 17.3816H6.33735L7.10962 14.3997H1.87809C0.943313 14.3997 0.943313 12.9305 1.87809 12.9305H7.49014L8.26227 9.94852ZM9.69077 34.8449C8.78512 38.3425 12.355 39.7218 15.2663 37.3461L15.2677 37.3479C18.1994 34.9537 17.8839 30.852 14.6008 30.852C12.4553 30.852 10.2657 32.6929 9.69077 34.8449ZM5.04293 33.9551H8.48027C10.0337 29.6412 15.6247 27.8102 17.9261 30.9914C18.5237 31.8176 18.7809 32.8582 18.6827 33.9551H40.2843L41.8795 27.7957H5.10826L3.8697 32.8056C3.8697 33.5424 4.35479 33.9551 5.04293 33.9551ZM47.3575 12.3137L47.5354 12.0671C47.7324 11.9138 54.6996 12.0037 55.537 12.0037C55.8599 12.0037 56.1279 12.0726 56.33 12.2035V12.2064C56.5198 12.3291 56.6658 12.5143 56.7582 12.755L60.4417 22.3524C60.5283 22.5782 60.5756 22.8072 60.5835 23.0465C60.6076 23.7818 59.164 28.9443 58.8848 30.0227C58.1973 30.0331 57.5809 29.9222 56.9685 30.4215V30.4244C56.6774 30.662 56.4481 30.9961 56.3516 31.3688L55.652 33.958L53.672 33.9577C53.7699 32.8602 53.5268 31.8918 52.9531 31.0447C50.7924 27.8538 45.0694 29.5137 43.47 33.9551H41.7526L47.3575 12.3137ZM48.8167 32.3688C45.8547 32.3688 44.9988 37.0105 47.9952 37.0105C50.9572 37.0105 51.8132 32.3688 48.8167 32.3688ZM49.2382 34.0228C49.0659 33.5826 47.6319 33.9027 47.5431 35.0802C47.4726 36.017 49.1796 35.4793 49.2686 34.2992C49.2766 34.1925 49.2672 34.0969 49.2382 34.0228ZM50.4469 30.9622C46.9801 30.0033 43.1272 34.8818 45.0278 37.5101C46.9163 40.1216 52.2725 37.3504 52.2725 33.5034C52.2725 32.2637 51.6108 31.2849 50.4469 30.9622ZM58.903 31.4862L57.8449 31.5751L57.8435 31.5734C57.6542 31.7289 57.2967 33.329 57.2586 33.4672C56.5463 36.0448 56.7554 35.1106 57.7302 35.0872L58.7884 34.9982L58.7899 35C59.0071 34.8218 59.8051 31.3859 59.8051 31.3859C59.5761 31.5351 59.3522 31.4737 58.903 31.4862ZM47.2716 26.273C46.3368 26.273 46.3368 24.8037 47.2716 24.8037H50.5093C51.4442 24.8037 51.4442 26.273 50.5093 26.273H47.2716ZM34.5635 30.5596H26.1258C25.191 30.5596 25.191 32.0288 26.1258 32.0288H34.5635C35.4983 32.0288 35.4983 30.5596 34.5635 30.5596ZM13.8272 32.3688C10.8651 32.3688 10.009 37.0105 13.0056 37.0105C15.9681 37.0105 16.824 32.3688 13.8272 32.3688ZM14.2489 34.0228C14.0767 33.5829 12.6426 33.902 12.5535 35.0802C12.4826 36.0167 14.1901 35.4798 14.2793 34.2993C14.2874 34.1925 14.278 34.0969 14.2489 34.0228ZM49.5454 13.954H54.5559C55.0738 13.954 55.5073 14.2614 55.6783 14.7694C55.9758 15.6527 57.8046 20.8334 57.8046 21.3223C57.8046 22.1691 57.0618 22.9747 56.2351 22.9747L47.2663 22.9303C46.9976 22.8557 46.7759 22.691 46.6204 22.4635H46.6178C46.3941 22.1356 46.3428 21.7285 46.4464 21.3296L48.0287 15.2202C48.2088 14.5244 48.8504 13.954 49.5454 13.954ZM54.3992 15.4232L56.3837 21.3307L56.235 21.5055H47.8689L49.4896 15.4626L54.3992 15.4232Z" fill="#FF4444"/>
</svg>
