<svg width="106" height="106" viewBox="0 0 106 106" fill="none" xmlns="http://www.w3.org/2000/svg">
<path d="M91.6908 19.0037L106 4.69449L101.306 0L82.484 18.8222H79.1527C79.0421 11.9597 75.8192 7.01887 71.4102 7.01887H34.8959C30.4861 7.01887 27.2648 11.9597 27.1534 18.8222H16.6395C9.92821 18.8222 4.46803 24.2824 4.46803 30.9937V79.3113C4.46803 84.0457 7.19074 88.1478 11.1476 90.1587L0 101.306L4.69449 106L19.2124 91.482H89.6681C96.3794 91.482 101.84 86.0219 101.84 79.3106V30.9929C101.84 24.9721 97.4402 19.9722 91.6908 19.0037ZM11.107 79.3106V30.9929C11.107 27.9419 13.5885 25.4604 16.6395 25.4604H33.7901V19.1896C33.7901 16.0361 34.7535 14.1624 35.2212 13.6571H71.0857C71.5533 14.1624 72.5167 16.0361 72.5167 19.1896V25.4604H75.8451L65.8896 35.4167C62.2204 32.8644 57.7686 31.3618 52.9694 31.3618C40.4616 31.3618 30.2862 41.5371 30.2862 54.0449C30.2862 58.8434 31.7881 63.2959 34.3404 66.9651L16.4713 84.835C13.4985 84.7442 11.107 82.3048 11.107 79.3106ZM69.0136 54.0449C69.0136 62.8917 61.8162 70.0898 52.9694 70.0898C49.4832 70.0898 46.2559 68.9686 43.6217 67.0728L65.9973 44.6972C67.8923 47.3314 69.0136 50.5587 69.0136 54.0449ZM36.9252 54.0449C36.9252 45.1981 44.1226 38.0007 52.9694 38.0007C55.9318 38.0007 58.7062 38.8107 61.0903 40.2159L39.1404 62.1658C37.7352 59.781 36.9252 57.0066 36.9252 54.0449ZM95.2006 79.3106C95.2006 82.3616 92.7191 84.8431 89.6681 84.8431H25.8514L38.8867 71.8078C42.7587 74.8846 47.6508 76.7288 52.9694 76.7288C65.4772 76.7288 75.6525 66.5527 75.6525 54.0449C75.6525 48.7271 73.8084 43.8342 70.7323 39.9622L85.234 25.4604H89.6681C92.7191 25.4604 95.2006 27.9419 95.2006 30.9929V79.3106Z" fill="#B6B5B5"/>
</svg>
