<svg width="34" height="44" viewBox="0 0 34 44" fill="none" xmlns="http://www.w3.org/2000/svg">
<path d="M0.906258 0C0.414674 0.04635 -0.00212088 0.506731 8.12044e-06 1.00098V38.5377C6.06204e-05 39.0618 0.476424 39.5387 1.00001 39.5387H13.7969C14.3252 39.5462 14.8111 39.0666 14.8111 38.5377C14.8111 38.0088 14.3252 37.5293 13.7969 37.5368H2.00001V2.00198H32V37.5368H31.5156C30.9873 37.5293 30.5014 38.0088 30.5014 38.5377C30.5014 39.0666 30.9873 39.5462 31.5156 39.5387H33C33.5236 39.5387 33.9999 39.0618 34 38.5377V1.00098C33.9999 0.476876 33.5236 5e-05 33 0C22.3041 0 11.5956 0 0.906258 0ZM5.90626 4.50442C5.38259 4.52887 4.92839 5.02816 4.95293 5.55234C4.97748 6.07651 5.47635 6.53105 6.00001 6.50638H28C28.5283 6.51383 29.0142 6.03428 29.0142 5.5054C29.0142 4.97651 28.5283 4.49695 28 4.50442C20.6376 4.50442 13.262 4.50442 5.90626 4.50442ZM5.90626 9.50933C5.38259 9.53378 4.92839 10.033 4.95293 10.5572C4.97748 11.0814 5.47635 11.536 6.00001 11.5113H28C28.5283 11.5188 29.0142 11.0392 29.0142 10.5103C29.0142 9.98143 28.5283 9.50186 28 9.50933C20.6376 9.50933 13.262 9.50933 5.90626 9.50933ZM5.90626 14.5142C5.38259 14.5387 4.92839 15.0379 4.95293 15.5621C4.97748 16.0863 5.47635 16.5409 6.00001 16.5162H27.5156C28.0439 16.5237 28.5299 16.0441 28.5299 15.5152C28.5299 14.9863 28.0439 14.5067 27.5156 14.5142C20.3147 14.5142 13.1005 14.5142 5.90626 14.5142ZM5.90626 19.5191C5.38259 19.5436 4.92839 20.0429 4.95293 20.567C4.97748 21.0912 5.47635 21.5458 6.00001 21.5211H15.5C16.0283 21.5286 16.5142 21.049 16.5142 20.5201C16.5142 19.9912 16.0283 19.5116 15.5 19.5191C12.3049 19.5191 9.09439 19.5191 5.90626 19.5191ZM22.5 20.5201C18.3697 20.5201 15 23.8931 15 28.0275C15 32.1618 18.3697 35.5348 22.5 35.5348C26.6303 35.5348 30 32.1618 30 28.0275C30 23.8931 26.6303 20.5201 22.5 20.5201ZM22.5 22.5221C25.5494 22.5221 28 24.9751 28 28.0275C28 31.0799 25.5494 33.5329 22.5 33.5329C19.4506 33.5329 17 31.0799 17 28.0275C17 24.9751 19.4506 22.5221 22.5 22.5221ZM25.4219 25.0089C25.1649 25.0309 24.9183 25.1573 24.75 25.353L21.4688 29.0597L20.2031 27.8085C19.8335 27.428 19.1478 27.4251 18.775 27.8025C18.4022 28.1798 18.4127 28.8661 18.7969 29.2319L20.7969 31.2338C21.182 31.6164 21.8903 31.5935 22.25 31.1868L26.25 26.6824C26.5208 26.3868 26.5869 25.9209 26.4091 25.5615C26.2312 25.202 25.8209 24.9724 25.4219 25.0089ZM17.3906 35.5192C16.8993 35.5732 16.4894 36.0411 16.5 36.5358V43.0422C16.5104 43.7608 17.4689 44.2597 18.0625 43.8555L22.5 40.79L26.9375 43.8555C27.5312 44.2597 28.4897 43.7608 28.5 43.0422V36.5358C28.5075 36.007 28.0284 35.5206 27.5 35.5206C26.9716 35.5206 26.4925 36.007 26.5 36.5358V41.134L23.0625 38.741C22.7332 38.5168 22.2668 38.5168 21.9375 38.741L18.5 41.134V36.5358C18.5122 35.968 17.9546 35.457 17.3906 35.5192Z" fill="#FF4444"/>
</svg>
