<svg width="40" height="40" viewBox="0 0 40 40" fill="none" xmlns="http://www.w3.org/2000/svg">
<path d="M40 14.776V7.6C40 7.16 39.6333 6.8 39.185 6.8H30.0815C30.2526 6.56 30.3586 6.296 30.3912 5.992C30.5786 4.464 29.78 3.752 29.291 3.464C29.0057 3.296 28.5004 2.928 28.37 2.36C28.0114 0.864 26.9275 0 25.379 0C25.3708 0 25.3627 0 25.3545 0C23.0644 0.008 21.0676 3.352 20 5.576C18.9242 3.352 16.9356 0.008 14.6455 0C14.6373 0 14.6292 0 14.621 0C13.0725 0 11.9886 0.864 11.63 2.368C11.4996 2.936 10.9943 3.296 10.709 3.464C10.22 3.752 9.42135 4.464 9.6088 5.992C9.64955 6.296 9.74735 6.56 9.9185 6.8H0.814996C0.366748 6.8 0 7.16 0 7.6V14.784C0 15.224 0.366748 15.584 0.814996 15.584H2.99103V39.2C2.99103 39.64 3.35778 40 3.80603 40H17.0416H22.9584H36.194C36.6422 40 37.009 39.64 37.009 39.2V15.576H39.185C39.6333 15.576 40 15.224 40 14.776ZM24.9633 8.4V13.984H22.9584H17.0416H15.0367V8.4H24.9633ZM25.3627 1.6C25.3708 1.6 25.3708 1.6 25.379 1.6C26.1614 1.6 26.5933 1.952 26.7808 2.728C26.9845 3.576 27.5795 4.328 28.4597 4.84C28.5819 4.912 28.8672 5.08 28.7775 5.8C28.7449 6.08 27.9136 6.72 21.2306 6.792C22.3309 4.4 24.1076 1.608 25.3627 1.6ZM11.5403 4.84C12.4205 4.328 13.0155 3.576 13.2111 2.728C13.4067 1.936 13.8223 1.6 14.621 1.6C14.6292 1.6 14.6292 1.6 14.6373 1.6C15.8924 1.608 17.6691 4.4 18.7694 6.792C12.0864 6.72 11.2551 6.088 11.2225 5.8C11.1328 5.08 11.4181 4.912 11.5403 4.84ZM1.62999 8.4H13.4067V13.984H3.80603H1.62999V8.4ZM4.62103 15.576H14.2217H16.2266V38.4H4.62103V15.576ZM17.8566 38.4V15.576H22.1434V38.4H17.8566ZM35.379 38.4H23.7734V15.576H25.7783H35.379V38.4ZM38.37 13.976H36.194H26.5933V8.4H38.37V13.976Z" fill="#FF4444"/>
</svg>
