<svg width="54" height="40" viewBox="0 0 54 40" fill="none" xmlns="http://www.w3.org/2000/svg">
<path d="M47.6665 26.9802H47.6277L32.2108 27.8532C32.2879 27.0834 32.2038 26.305 31.9647 25.5733C31.7256 24.8416 31.3371 24.1744 30.827 23.619L21.9266 14.3495C20.4258 12.7848 18.56 12.1712 16.0535 12.4189L9.0215 13.1118V11.6451C9.02094 11.1196 8.8232 10.6158 8.47165 10.2442C8.12011 9.8726 7.64347 9.66358 7.1463 9.66299H1.87572C1.37847 9.66343 0.901692 9.87239 0.550031 10.244C0.198371 10.6156 0.000555416 11.1195 0 11.6451L0 33.0658C0.00055518 33.5915 0.198353 34.0954 0.549999 34.4671C0.901645 34.8388 1.37842 35.0479 1.87572 35.0485H7.14788C7.64509 35.0478 8.12173 34.8386 8.47326 34.4669C8.82479 34.0952 9.02252 33.5914 9.02307 33.0658V31.1407H12.3435L17.7766 37.5611C18.3747 38.3141 19.1194 38.9217 19.9599 39.3426C20.8005 39.7635 21.7171 39.9878 22.6471 40C23.1136 39.9992 23.5787 39.9461 24.0346 39.8415L46.4195 34.7924C46.6088 34.7486 46.8049 34.7093 47.0126 34.6671C48.5469 34.3556 50.8652 33.8884 50.8652 30.7339C50.8652 28.6642 49.431 26.9802 47.6665 26.9802ZM7.58888 33.0658C7.58739 33.189 7.54047 33.3067 7.4581 33.3939C7.37573 33.481 7.26442 33.5308 7.14788 33.5325H1.87572C1.75908 33.5309 1.64765 33.4812 1.56516 33.3941C1.48268 33.3069 1.43568 33.1891 1.43419 33.0658V11.6451C1.43569 11.5219 1.4827 11.4042 1.5652 11.3171C1.64769 11.23 1.75913 11.1804 1.87572 11.179H7.14788C7.26437 11.1806 7.37568 11.2302 7.45806 11.3173C7.54045 11.4043 7.58739 11.522 7.58888 11.6451V13.9366V33.0658ZM46.7436 33.1767C46.5338 33.2182 46.3209 33.262 46.1143 33.3091L23.7347 38.3582C22.8412 38.5669 21.9105 38.5082 21.0468 38.1888C20.1832 37.8695 19.4208 37.302 18.8453 36.5501L13.1987 29.8753C13.1314 29.7958 13.0489 29.7322 12.9568 29.6887C12.8646 29.6452 12.7648 29.6226 12.6639 29.6225H9.02307V14.6344L16.1883 13.9283C18.2685 13.7232 19.7273 14.1855 20.9198 15.4293L29.8238 24.6999C30.3993 25.3571 30.7425 26.2041 30.7955 27.0979C30.8484 27.9917 30.6078 28.8774 30.1143 29.6053C29.8974 29.9269 29.6172 30.195 29.2929 30.3912C28.9687 30.5875 28.6081 30.7072 28.236 30.7422C27.8795 30.7666 27.5223 30.7091 27.1889 30.5736C26.8555 30.4381 26.5538 30.2278 26.3047 29.9573L20.9685 24.3967C20.832 24.2613 20.6508 24.1877 20.4637 24.1916C20.2766 24.1955 20.0983 24.2765 19.9669 24.4174C19.8355 24.5583 19.7614 24.748 19.7604 24.9458C19.7595 25.1437 19.8317 25.3341 19.9617 25.4764L25.2984 31.0376C25.6922 31.4604 26.168 31.7881 26.693 31.9981C27.218 32.2081 27.7798 32.2955 28.3398 32.2543C28.9158 32.2045 29.4748 32.0236 29.9785 31.724C30.4821 31.4243 30.9184 31.013 31.2575 30.5183C31.5036 30.1722 31.7061 29.7938 31.86 29.3925L47.6859 28.4968C48.6492 28.5084 49.4305 29.5072 49.4305 30.7339C49.4305 32.5459 48.4599 32.8297 46.7436 33.1767ZM5.22863 14.2692V14.3063C5.22358 14.5038 5.14581 14.6914 5.01188 14.8292C4.87795 14.967 4.69843 15.0441 4.51154 15.0441C4.32464 15.0441 4.14512 14.967 4.01119 14.8292C3.87726 14.6914 3.79949 14.5038 3.79444 14.3063V14.2692C3.79949 14.0717 3.87726 13.8841 4.01119 13.7463C4.14512 13.6085 4.32464 13.5314 4.51154 13.5314C4.69843 13.5314 4.87795 13.6085 5.01188 13.7463C5.14581 13.8841 5.22358 14.0717 5.22863 14.2692ZM43.7294 10.1425H45.4641V11.9777C45.4641 12.6134 45.703 13.223 46.1282 13.6725C46.5534 14.122 47.1302 14.3745 47.7315 14.3745C48.3329 14.3745 48.9096 14.122 49.3348 13.6725C49.7601 13.223 49.999 12.6134 49.999 11.9777V10.1425H51.7326C52.3339 10.1425 52.9107 9.88994 53.3359 9.44046C53.7611 8.99098 54 8.38135 54 7.74569C54 7.11003 53.7611 6.5004 53.3359 6.05092C52.9107 5.60144 52.3339 5.34893 51.7326 5.34893H50V3.51366C50 2.878 49.7611 2.26838 49.3359 1.8189C48.9107 1.36942 48.3339 1.1169 47.7326 1.1169C47.1312 1.1169 46.5545 1.36942 46.1292 1.8189C45.704 2.26838 45.4651 2.878 45.4651 3.51366V5.34893H43.7294C43.1281 5.34893 42.5513 5.60144 42.1261 6.05092C41.7009 6.5004 41.462 7.11003 41.462 7.74569C41.462 8.38135 41.7009 8.99098 42.1261 9.44046C42.5513 9.88994 43.1281 10.1425 43.7294 10.1425ZM43.7294 6.86492H46.1825C46.3726 6.86492 46.5549 6.78509 46.6894 6.64299C46.8238 6.50089 46.8993 6.30816 46.8993 6.1072V3.51366C46.9 3.2806 46.9881 3.05734 47.1443 2.89285C47.3005 2.72836 47.5121 2.63607 47.7326 2.63622C47.9523 2.63879 48.1623 2.73196 48.318 2.89587C48.4736 3.05977 48.5625 3.28145 48.5658 3.51366V6.1072C48.5665 6.30783 48.6424 6.49998 48.7768 6.64159C48.9113 6.78319 49.0934 6.8627 49.2832 6.8627H51.7336C51.9546 6.8627 52.1665 6.9555 52.3228 7.12067C52.4791 7.28585 52.5669 7.50988 52.5669 7.74347C52.5669 7.97707 52.4791 8.2011 52.3228 8.36627C52.1665 8.53145 51.9546 8.62425 51.7336 8.62425H49.2832C49.093 8.62425 48.9106 8.70406 48.7761 8.84614C48.6416 8.98822 48.566 9.18095 48.5658 9.38196V11.9755C48.5625 12.2077 48.4736 12.4294 48.318 12.5933C48.1623 12.7572 47.9523 12.8504 47.7326 12.8529C47.5121 12.8531 47.3005 12.7608 47.1443 12.5963C46.9881 12.4318 46.9 12.2086 46.8993 11.9755V9.38418C46.8993 9.18322 46.8238 8.99049 46.6894 8.84839C46.5549 8.70629 46.3726 8.62646 46.1825 8.62646H43.7294C43.5084 8.62646 43.2965 8.53367 43.1402 8.36849C42.984 8.20331 42.8962 7.97928 42.8962 7.74569C42.8962 7.51209 42.984 7.28807 43.1402 7.12289C43.2965 6.95771 43.5084 6.86492 43.7294 6.86492ZM32.096 16.2879C32.0967 16.9233 32.3358 17.5325 32.7608 17.9819C33.1859 18.4312 33.7622 18.6839 34.3634 18.6847H36.0965V20.5194C36.0965 21.155 36.3354 21.7647 36.7606 22.2141C37.1858 22.6636 38.3639 22.9161 38.3639 22.9161C38.3639 22.9161 39.542 22.6636 39.9672 22.2141C40.3925 21.7647 40.6314 21.155 40.6314 20.5194V18.6847H42.3702C42.9657 18.6751 43.5337 18.4183 43.9516 17.9698C44.3695 17.5214 44.6037 16.9171 44.6037 16.2876C44.6037 15.6581 44.3695 15.0539 43.9516 14.6054C43.5337 14.1569 42.9657 13.9002 42.3702 13.8906H40.6314V12.0614C40.6314 11.4258 40.3925 10.8161 39.9672 10.3666C39.542 9.91717 38.9653 9.66465 38.3639 9.66465C37.7626 9.66465 37.1858 9.91717 36.7606 10.3666C36.3354 10.8161 36.0965 11.4258 36.0965 12.0614V13.8934H34.366C33.7645 13.8934 33.1876 14.1457 32.762 14.595C32.3363 15.0443 32.0968 15.6537 32.096 16.2896V16.2879ZM36.8154 15.4071C37.0056 15.407 37.1879 15.327 37.3223 15.1848C37.4567 15.0426 37.5323 14.8499 37.5323 14.6489V12.0603C37.5323 11.8267 37.62 11.6027 37.7763 11.4375C37.9326 11.2723 38.1445 11.1795 38.3655 11.1795C38.5865 11.1795 38.7984 11.2723 38.9547 11.4375C39.111 11.6027 39.1987 11.8267 39.1987 12.0603V14.6505C39.1987 14.8516 39.2743 15.0445 39.4089 15.1867C39.5434 15.3289 39.7258 15.4088 39.9161 15.4088H42.3702C42.5912 15.4088 42.8031 15.5016 42.9594 15.6668C43.1157 15.8319 43.2035 16.056 43.2035 16.2896C43.2035 16.5232 43.1157 16.7472 42.9594 16.9124C42.8031 17.0775 42.5912 17.1703 42.3702 17.1703H39.9145C39.8203 17.1703 39.7271 17.1898 39.64 17.2279C39.553 17.2659 39.4739 17.3217 39.4073 17.3921C39.3407 17.4624 39.2878 17.546 39.2518 17.638C39.2157 17.7299 39.1972 17.8285 39.1972 17.9281V20.521C39.197 20.7546 39.1092 20.9785 38.953 21.1437C38.7967 21.3088 38.5849 21.4017 38.3639 21.4018C38.1438 21.3988 37.9335 21.305 37.7779 21.1405C37.6222 20.976 37.5335 20.7537 37.5307 20.521V17.9281C37.5304 17.8285 37.5116 17.7301 37.4753 17.6383C37.439 17.5464 37.386 17.4631 37.3192 17.3929C37.2525 17.3228 37.1733 17.2672 37.0862 17.2294C36.9991 17.1916 36.9059 17.1723 36.8117 17.1726H34.3634C34.1424 17.1726 33.9305 17.0798 33.7742 16.9146C33.6179 16.7494 33.5302 16.5254 33.5302 16.2918C33.5302 16.0582 33.6179 15.8342 33.7742 15.669C33.9305 15.5038 34.1424 15.411 34.3634 15.411L36.8154 15.4071ZM25.2229 9.02444H26.9591V10.8564C26.9591 11.492 27.198 12.1017 27.6232 12.5512C28.0484 13.0006 28.6252 13.2531 29.2265 13.2531C29.8279 13.2531 30.4046 13.0006 30.8299 12.5512C31.2551 12.1017 31.494 11.492 31.494 10.8564V9.02444H33.2302C33.8316 9.02444 34.4083 8.77193 34.8335 8.32245C35.2588 7.87297 35.4976 7.26334 35.4976 6.62768C35.4976 5.99202 35.2588 5.38239 34.8335 4.93291C34.4083 4.48343 33.8316 4.23092 33.2302 4.23092H31.4919V2.39676C31.4919 1.7611 31.253 1.15148 30.8278 0.701995C30.4025 0.252515 29.8258 0 29.2244 0C28.6231 0 28.0463 0.252515 27.6211 0.701995C27.1959 1.15148 26.957 1.7611 26.957 2.39676V4.23203H25.2229C24.6215 4.23203 24.0448 4.48454 23.6195 4.93402C23.1943 5.3835 22.9554 5.99313 22.9554 6.62879C22.9554 7.26445 23.1943 7.87408 23.6195 8.32356C24.0448 8.77304 24.6215 9.02555 25.2229 9.02555V9.02444ZM25.2229 5.74691H27.6765C27.7706 5.74691 27.8639 5.72729 27.9509 5.68918C28.0379 5.65106 28.1169 5.5952 28.1835 5.52478C28.2501 5.45436 28.3029 5.37077 28.3389 5.27877C28.3749 5.18678 28.3934 5.08819 28.3933 4.98864V2.39676C28.3933 2.16317 28.4811 1.93914 28.6373 1.77396C28.7936 1.60879 29.0055 1.51599 29.2265 1.51599C29.4475 1.51599 29.6595 1.60879 29.8157 1.77396C29.972 1.93914 30.0598 2.16317 30.0598 2.39676V4.98974C30.0597 5.08934 30.0782 5.18798 30.1142 5.28001C30.1503 5.37204 30.2031 5.45566 30.2697 5.52609C30.3364 5.59651 30.4155 5.65237 30.5025 5.69045C30.5896 5.72853 30.6829 5.74809 30.7771 5.74802H33.2302C33.4507 5.74875 33.662 5.84187 33.8177 6.00697C33.9734 6.17207 34.0608 6.39567 34.0608 6.62879C34.0583 6.86106 33.97 7.0831 33.8149 7.24761C33.6597 7.41212 33.4499 7.50611 33.2302 7.50956H30.775C30.6809 7.50949 30.5876 7.52903 30.5006 7.56708C30.4135 7.60513 30.3344 7.66093 30.2678 7.7313C30.2012 7.80166 30.1484 7.88522 30.1123 7.97718C30.0762 8.06915 30.0577 8.16773 30.0577 8.26728V10.8575C30.0577 11.0911 29.9699 11.3151 29.8136 11.4803C29.6574 11.6455 29.4454 11.7383 29.2244 11.7383C29.0034 11.7383 28.7915 11.6455 28.6352 11.4803C28.479 11.3151 28.3912 11.0911 28.3912 10.8575V8.26728C28.3912 8.16778 28.3726 8.06924 28.3366 7.97731C28.3006 7.88538 28.2478 7.80185 28.1812 7.73149C28.1147 7.66113 28.0356 7.60532 27.9487 7.56724C27.8617 7.52916 27.7685 7.50956 27.6744 7.50956H25.2229C25.0032 7.50597 24.7936 7.41191 24.6385 7.24742C24.4835 7.08292 24.3953 6.86097 24.3928 6.62879C24.3926 6.39572 24.4799 6.17211 24.6355 6.007C24.7912 5.84189 25.0024 5.74875 25.2229 5.74802V5.74691Z" fill="#FF4444"/>
</svg>
