<svg width="20.000000" height="20.000000" viewBox="0 0 20 20" fill="none" xmlns="http://www.w3.org/2000/svg" xmlns:xlink="http://www.w3.org/1999/xlink">
	<desc>
			Created with Pixso.
	</desc>
	<defs/>
	<path id="Vector" d="M8.91309 0.0610352C11.2129 -0.19873 13.5957 0.376465 15.5176 1.66724C17.0488 2.67822 18.2861 4.12109 19.0635 5.78247C19.9629 7.72388 20.2402 9.95923 19.7822 12.054C19.2725 14.5479 17.7539 16.8135 15.6533 18.2476C12.5342 20.4526 8.12988 20.5884 4.87695 18.5891C2.57129 17.2178 0.854492 14.8845 0.262695 12.2637C-0.254883 10.1038 0.00292969 7.77808 0.942383 5.77002C2.37402 2.65698 5.50098 0.401367 8.91309 0.0610352ZM8.6709 1.35718C6.05176 1.74023 3.6709 3.40771 2.38184 5.71606C1.55176 7.18262 1.16309 8.89429 1.27344 10.5759C1.40625 12.7786 2.42773 14.9058 4.0459 16.4014C5.58008 17.8406 7.64648 18.6995 9.75 18.7461C11.6904 18.8101 13.6445 18.1936 15.1992 17.032C16.8887 15.7837 18.1064 13.9099 18.5479 11.8542C18.9814 9.87769 18.6914 7.75293 17.752 5.96338C16.9209 4.35962 15.5762 3.03101 13.9697 2.21094C12.3535 1.37354 10.4668 1.08325 8.6709 1.35718Z" fill="#416A88" fill-opacity="1.000000" fill-rule="nonzero"/>
	<path id="Vector" d="M11.4883 5L8.80957 5C8.66797 5 8.53125 5.06201 8.43066 5.17236C8.33105 5.28271 8.27441 5.43213 8.27441 5.58813L8.27441 9.70581L7.20312 9.70581C7.06055 9.70581 6.9248 9.76782 6.82422 9.87817C6.72363 9.98853 6.66699 10.1382 6.66699 10.2942C6.66699 10.4502 6.72363 10.5999 6.82422 10.71C6.9248 10.8203 7.06055 10.8823 7.20312 10.8823L8.27441 10.8823L8.27441 12.0588L7.20312 12.0588C7.06055 12.0588 6.9248 12.1208 6.82422 12.2312C6.72363 12.3413 6.66699 12.491 6.66699 12.647C6.66699 12.803 6.72363 12.9526 6.82422 13.063C6.9248 13.1733 7.06055 13.2354 7.20312 13.2354L8.27441 13.2354L8.27441 14.4119C8.27441 14.5679 8.33105 14.7173 8.43066 14.8276C8.53125 14.938 8.66797 15 8.80957 15C8.95215 15 9.08789 14.938 9.18848 14.8276C9.28906 14.7173 9.3457 14.5679 9.3457 14.4119L9.3457 13.2354L10.9531 13.2354C11.0947 13.2354 11.2314 13.1733 11.3311 13.063C11.4316 12.9526 11.4883 12.803 11.4883 12.647C11.4883 12.491 11.4316 12.3413 11.3311 12.2312C11.2314 12.1208 11.0947 12.0588 10.9531 12.0588L9.3457 12.0588L9.3457 10.8823L11.4883 10.8823C12.1992 10.8823 12.8799 10.5725 13.3828 10.021C13.8848 9.46924 14.167 8.72119 14.167 7.94116C14.167 7.16113 13.8848 6.41309 13.3828 5.86157C12.8799 5.30981 12.1992 5 11.4883 5ZM11.4883 9.70581L9.3457 9.70581L9.3457 6.17651L11.4883 6.17651C11.915 6.17651 12.3232 6.3623 12.625 6.69336C12.9258 7.02417 13.0957 7.47314 13.0957 7.94116C13.0957 8.40918 12.9258 8.85815 12.625 9.18896C12.3232 9.52002 11.915 9.70581 11.4883 9.70581Z" fill="#416A88" fill-opacity="1.000000" fill-rule="nonzero"/>
</svg>
