<svg width="15" height="13" viewBox="0 0 15 13" fill="none" xmlns="http://www.w3.org/2000/svg">
<path d="M0.0507975 1.61151L6.70762 8.26835C7.11952 8.68024 7.77135 8.70598 8.21317 8.34558L8.2986 8.26835L14.9505 1.61646C14.9721 1.69808 14.9869 1.78241 14.9944 1.86885L15 2V11C15 11.7908 14.3881 12.4386 13.6119 12.4959L13.5 12.5H1.5C0.709228 12.5 0.0613762 11.8881 0.00411433 11.1119L0 11V2C0 1.91043 0.00784995 1.82269 0.0229011 1.73744L0.0507975 1.61151ZM13.5 0.5C13.5908 0.5 13.6797 0.508063 13.766 0.523514L13.8935 0.552148L7.50315 6.9425L1.11143 0.55082C1.19405 0.52872 1.27948 0.5135 1.36707 0.505809L1.5 0.5H13.5Z" fill="#1B88CB"/>
</svg>
