<svg width="13" height="13" viewBox="0 0 13 13" fill="none" xmlns="http://www.w3.org/2000/svg">
<path d="M3.2858 0.528056C3.99955 1.04869 4.55573 1.7597 5.03126 2.43948L5.30752 2.84182L5.56813 3.22604C5.83588 3.61772 5.77194 4.1525 5.40819 4.46733L4.18874 5.37294C4.06787 5.46275 4.02768 5.62587 4.10018 5.75781C4.37608 6.26006 4.86762 7.00744 5.43013 7.56994C5.99319 8.133 6.77588 8.65625 7.31263 8.96325C7.45181 9.04281 7.62688 8.99675 7.71488 8.86269L8.50819 7.65425C8.81244 7.24944 9.3805 7.161 9.79344 7.44681L10.2083 7.73349C10.9824 8.27095 11.8148 8.8816 12.4506 9.69581C12.6641 9.96919 12.6958 10.3267 12.5685 10.6238C12.0455 11.8442 10.722 12.8835 9.34525 12.8328L9.15742 12.8224L9.01183 12.8098L8.85071 12.7918L8.67473 12.7674L8.48455 12.7357C8.4517 12.7298 8.4183 12.7235 8.38434 12.7169L8.17411 12.6728C8.138 12.6647 8.10138 12.6562 8.06425 12.6473L7.83545 12.5887L7.59512 12.5195L7.3439 12.4387C6.18995 12.0478 4.72569 11.2791 3.22335 9.77669C1.72098 8.27432 0.952284 6.81006 0.561338 5.65612L0.480534 5.4049L0.411299 5.16457L0.352764 4.93578L0.304061 4.71919C0.289369 4.64911 0.276171 4.58117 0.264323 4.51548L0.232681 4.3253L0.208268 4.14932L0.190215 3.98821L0.177654 3.84262L0.167214 3.65479C0.11672 2.28263 1.16784 0.949387 2.38259 0.428781C2.66764 0.306619 3.01288 0.328975 3.2858 0.528056ZM8.36981 2.7747L8.44231 2.78322C8.89725 2.86343 9.31513 3.08562 9.63606 3.41792C9.95694 3.75022 10.1644 4.17558 10.2287 4.63304C10.2768 4.97486 10.0386 5.29087 9.69675 5.33894C9.37935 5.38357 9.08416 5.18139 9.00518 4.8786L8.99088 4.80701C8.96331 4.61096 8.87438 4.42866 8.73688 4.28624C8.62224 4.16756 8.47879 4.08166 8.32131 4.03642L8.22525 4.01423C7.88538 3.95429 7.65838 3.63013 7.71831 3.29019C7.77397 2.97454 8.05747 2.75628 8.36981 2.7747ZM8.375 0.874994C8.86744 0.874994 9.35513 0.971987 9.81006 1.16044C10.2651 1.3489 10.6784 1.62512 11.0267 1.97334C11.3749 2.32156 11.6511 2.73496 11.8396 3.18993C12.028 3.6449 12.125 4.13254 12.125 4.62499C12.125 4.97017 11.8452 5.24999 11.5 5.24999C11.1795 5.24999 10.9153 5.00872 10.8792 4.69788L10.875 4.62499C10.875 4.29669 10.8104 3.9716 10.6847 3.66829C10.5591 3.36497 10.3749 3.08937 10.1428 2.85722C9.91063 2.62508 9.63507 2.44093 9.33169 2.31529C9.07893 2.2106 8.81106 2.14824 8.5388 2.13037L8.375 2.12499C8.02981 2.12499 7.75 1.84517 7.75 1.49999C7.75 1.15482 8.02981 0.874994 8.375 0.874994Z" fill="#1B88CB"/>
</svg>
