<svg width="65" height="18" viewBox="0 0 65 18" fill="none" xmlns="http://www.w3.org/2000/svg">
<path d="M40 8C39.4477 8 39 8.44772 39 9C39 9.55229 39.4477 10 40 10L40 8ZM64.3017 9.7071C64.6922 9.31658 64.6922 8.68341 64.3017 8.29289L57.9377 1.92893C57.5472 1.5384 56.914 1.5384 56.5235 1.92893C56.133 2.31945 56.133 2.95262 56.5235 3.34314L62.1804 8.99999L56.5235 14.6568C56.133 15.0474 56.133 15.6805 56.5235 16.0711C56.9141 16.4616 57.5472 16.4616 57.9377 16.0711L64.3017 9.7071ZM40 10L63.5946 9.99999L63.5946 7.99999L40 8L40 10Z" fill="white"/>
<path fill-rule="evenodd" clip-rule="evenodd" d="M17.1212 15.842C17.0952 16.1259 16.9846 16.3954 16.8039 16.6158C16.6231 16.8362 16.3805 16.9974 16.1073 17.0786C15.834 17.1598 15.5428 17.1573 15.2711 17.0714C14.9993 16.9854 14.7593 16.82 14.5825 16.5965C13.0279 15.3599 10.6034 13.58 10.6034 13.58C10.6034 13.58 8.84896 16.6707 8.53519 16.9873C8.43161 17.0746 8.31108 17.1393 8.18106 17.1772C8.05104 17.2152 7.91437 17.2255 7.7801 17.2077C7.64584 17.1898 7.51683 17.1441 7.40125 17.0735C7.28567 17.0029 7.1861 16.9089 7.10894 16.7976C7.09292 16.7489 7.07399 16.7013 7.052 16.655L8.03603 11.7315L15.0532 4.8385L5.48299 10.2996C5.48299 10.2996 1.16148 9.00743 0.519665 8.75499C0.3541 8.66455 0.217567 8.52903 0.125845 8.36417C0.0341228 8.19931 -0.00891285 8.01186 0.0015353 7.82349C0.0119834 7.63513 0.0754741 7.45358 0.184866 7.29988C0.294257 7.14618 0.445049 7.02659 0.6196 6.95502C1.5324 6.49007 17.6347 0.340083 18.1767 0.181769C18.7186 0.0234552 20.1449 -0.388734 19.988 0.999008C19.8311 2.38675 17.2781 15.0804 17.1212 15.842Z" fill="white"/>
</svg>
