<svg width="68" height="26" viewBox="0 0 68 26" fill="none" xmlns="http://www.w3.org/2000/svg">
<path d="M43 12C42.4477 12 42 12.4477 42 13C42 13.5523 42.4477 14 43 14L43 12ZM67.3017 13.7071C67.6922 13.3166 67.6922 12.6834 67.3017 12.2929L60.9377 5.92893C60.5472 5.5384 59.914 5.5384 59.5235 5.92893C59.133 6.31945 59.133 6.95262 59.5235 7.34314L65.1804 13L59.5235 18.6568C59.133 19.0474 59.133 19.6805 59.5235 20.0711C59.9141 20.4616 60.5472 20.4616 60.9377 20.0711L67.3017 13.7071ZM43 14L66.5946 14L66.5946 12L43 12L43 14Z" fill="white"/>
<path d="M7.42872 2.64863C8.66589 3.55106 9.62992 4.78348 10.4542 5.96176L10.933 6.65916L11.3848 7.32513C11.8489 8.00405 11.738 8.931 11.1075 9.4767L8.99381 11.0464C8.78431 11.2021 8.71465 11.4848 8.84031 11.7135C9.31854 12.5841 10.1705 13.8796 11.1456 14.8546C12.1215 15.8305 13.4782 16.7375 14.4086 17.2696C14.6498 17.4075 14.9533 17.3277 15.1058 17.0953L16.4809 15.0007C17.0082 14.299 17.9929 14.1457 18.7086 14.6411L19.4277 15.1381C20.7694 16.0696 22.2124 17.1281 23.3144 18.5394C23.6845 19.0133 23.7394 19.6329 23.5187 20.1479C22.6122 22.2633 20.3181 24.0647 17.9318 23.9769L17.6062 23.9588L17.3538 23.937L17.0746 23.9057L16.7695 23.8634L16.4399 23.8086C16.383 23.7983 16.325 23.7874 16.2662 23.776L15.9018 23.6995C15.8392 23.6855 15.7757 23.6707 15.7114 23.6553L15.3148 23.5538L14.8982 23.4338L14.4628 23.2937C12.4626 22.6161 9.92454 21.2837 7.32046 18.6796C4.71637 16.0755 3.38396 13.5374 2.70632 11.5373L2.56626 11.1018L2.44625 10.6852L2.34479 10.2887L2.26037 9.91327C2.23491 9.79178 2.21203 9.67402 2.19149 9.56016L2.13665 9.23052L2.09433 8.92549L2.06304 8.64622L2.04127 8.39387L2.02317 8.06831C1.93565 5.68989 3.7576 3.37894 5.86316 2.47655C6.35724 2.26481 6.95565 2.30356 7.42872 2.64863ZM16.241 6.54282L16.3667 6.55758C17.1552 6.69661 17.8796 7.08174 18.4358 7.65773C18.992 8.23371 19.3516 8.97101 19.4631 9.76394C19.5464 10.3564 19.1335 10.9042 18.541 10.9875C17.9909 11.0648 17.4792 10.7144 17.3423 10.1896L17.3175 10.0655C17.2697 9.72566 17.1156 9.40967 16.8773 9.16282C16.6786 8.95711 16.4299 8.8082 16.1569 8.7298L15.9904 8.69132C15.4013 8.58743 15.0079 8.02555 15.1117 7.43634C15.2082 6.8892 15.6996 6.51088 16.241 6.54282ZM16.25 3.24999C17.1036 3.24999 17.9489 3.41811 18.7374 3.74477C19.5261 4.07143 20.2426 4.55022 20.8463 5.1538C21.4498 5.75737 21.9286 6.47393 22.2552 7.26255C22.5819 8.05116 22.75 8.8964 22.75 9.74999C22.75 10.3483 22.265 10.8333 21.6667 10.8333C21.1111 10.8333 20.6532 10.4151 20.5906 9.87633L20.5833 9.74999C20.5833 9.18093 20.4713 8.61744 20.2535 8.0917C20.0357 7.56595 19.7166 7.08825 19.3141 6.68586C18.9118 6.28347 18.4341 5.96428 17.9083 5.74651C17.4701 5.56503 17.0058 5.45695 16.5339 5.42597L16.25 5.41666C15.6517 5.41666 15.1667 4.93163 15.1667 4.33332C15.1667 3.73502 15.6517 3.24999 16.25 3.24999Z" fill="white"/>
</svg>
