<svg width="67" height="21" viewBox="0 0 67 21" fill="none" xmlns="http://www.w3.org/2000/svg">
<path d="M42 9C41.4477 9 41 9.44772 41 10C41 10.5523 41.4477 11 42 11L42 9ZM66.3017 10.7071C66.6922 10.3166 66.6922 9.68341 66.3017 9.29289L59.9377 2.92893C59.5472 2.5384 58.914 2.5384 58.5235 2.92893C58.133 3.31945 58.133 3.95262 58.5235 4.34314L64.1804 9.99999L58.5235 15.6568C58.133 16.0474 58.133 16.6805 58.5235 17.0711C58.9141 17.4616 59.5472 17.4616 59.9377 17.0711L66.3017 10.7071ZM42 11L65.5946 11L65.5946 8.99999L42 9L42 11Z" fill="white"/>
<path d="M0.0880489 1.92661L11.6265 13.4651C12.3405 14.1791 13.4703 14.2237 14.2362 13.599L14.3842 13.4651L25.9142 1.93519C25.9516 2.07667 25.9772 2.22285 25.9902 2.37267L26 2.6V18.2C26 19.5707 24.9394 20.6936 23.594 20.7929L23.4 20.8H2.6C1.22933 20.8 0.106385 19.7394 0.0071315 18.394L0 18.2V2.6C0 2.44475 0.0136066 2.29267 0.0396952 2.1449L0.0880489 1.92661ZM23.4 0C23.5574 0 23.7115 0.0139764 23.8611 0.0407583L24.0821 0.090389L13.0055 11.167L1.92648 0.088088C2.06969 0.0497813 2.21777 0.0234001 2.36959 0.0100688L2.6 0H23.4Z" fill="white"/>
</svg>
