<svg width="494" height="182" viewBox="0 0 494 182" fill="none" xmlns="http://www.w3.org/2000/svg">
<g clip-path="url(#clip0_933_1876)">
<rect width="494" height="182" rx="20" fill="#58B9E8"/>
<path d="M52.7935 58H48.4575V35.2905H36.8047V58H32.4868V31.5869H52.7935V58ZM77.0386 47.9731C77.0386 51.2371 76.2015 53.7845 74.5273 55.6152C72.8532 57.446 70.5226 58.3613 67.5356 58.3613C65.6688 58.3613 64.0187 57.9398 62.5854 57.0967C61.1522 56.2536 60.0501 55.0431 59.2793 53.4653C58.5085 51.8875 58.123 50.0568 58.123 47.9731C58.123 44.7332 58.9541 42.2039 60.6162 40.3853C62.2783 38.5666 64.6209 37.6572 67.644 37.6572C70.5347 37.6572 72.8231 38.5907 74.5093 40.4575C76.1955 42.3123 77.0386 44.8175 77.0386 47.9731ZM62.4951 47.9731C62.4951 52.5861 64.1994 54.8926 67.6079 54.8926C70.9803 54.8926 72.6665 52.5861 72.6665 47.9731C72.6665 43.4084 70.9683 41.126 67.5718 41.126C65.7892 41.126 64.4945 41.7161 63.6875 42.8965C62.8926 44.0768 62.4951 45.769 62.4951 47.9731ZM101.103 65.064H97.1465V58H83.4521V65.064H79.5317V54.7119H81.1577C82.5789 52.6764 83.7051 50.2194 84.5361 47.3408C85.3792 44.4502 85.8791 41.3428 86.0356 38.0186H98.1763V54.7119H101.103V65.064ZM94.0029 54.7119V41.2705H89.7031C89.4743 43.7516 88.9925 46.1966 88.2578 48.6055C87.5352 51.0143 86.6499 53.0498 85.6021 54.7119H94.0029ZM117.309 58L116.459 55.2178H116.315C115.351 56.4342 114.382 57.2653 113.406 57.7109C112.431 58.1445 111.178 58.3613 109.648 58.3613C107.685 58.3613 106.15 57.8314 105.042 56.7715C103.945 55.7116 103.397 54.2121 103.397 52.2729C103.397 50.2134 104.162 48.6597 105.692 47.6118C107.222 46.564 109.552 45.9919 112.684 45.8955L116.134 45.7871V44.7212C116.134 43.4445 115.833 42.493 115.231 41.8667C114.641 41.2284 113.719 40.9092 112.467 40.9092C111.443 40.9092 110.461 41.0597 109.522 41.3608C108.583 41.6619 107.679 42.0173 106.812 42.4268L105.439 39.3916C106.523 38.8255 107.709 38.3979 108.998 38.1089C110.287 37.8078 111.503 37.6572 112.647 37.6572C115.189 37.6572 117.104 38.2113 118.393 39.3193C119.693 40.4274 120.344 42.1678 120.344 44.5405V58H117.309ZM110.985 55.1094C112.527 55.1094 113.762 54.6818 114.689 53.8267C115.628 52.9595 116.098 51.749 116.098 50.1953V48.4609L113.533 48.5693C111.533 48.6416 110.076 48.9788 109.161 49.5811C108.257 50.1712 107.806 51.0806 107.806 52.3091C107.806 53.2004 108.071 53.8929 108.601 54.3867C109.131 54.8685 109.925 55.1094 110.985 55.1094ZM136.405 58.3613C133.875 58.3613 131.912 57.452 130.515 55.6333H130.262C130.431 57.3195 130.515 58.3433 130.515 58.7046V66.8887H126.27V38.0186H129.702C129.799 38.3919 129.997 39.2832 130.298 40.6924H130.515C131.84 38.6689 133.827 37.6572 136.477 37.6572C138.97 37.6572 140.909 38.5605 142.294 40.3672C143.692 42.1738 144.39 44.7091 144.39 47.9731C144.39 51.2371 143.68 53.7845 142.258 55.6152C140.849 57.446 138.898 58.3613 136.405 58.3613ZM135.375 41.126C133.689 41.126 132.454 41.6198 131.671 42.6074C130.901 43.5951 130.515 45.1729 130.515 47.3408V47.9731C130.515 50.4061 130.901 52.1706 131.671 53.2666C132.442 54.3506 133.701 54.8926 135.447 54.8926C136.917 54.8926 138.049 54.2904 138.844 53.0859C139.639 51.8815 140.036 50.1652 140.036 47.937C140.036 45.6968 139.639 44.0046 138.844 42.8604C138.061 41.7041 136.905 41.126 135.375 41.126ZM161.716 38.0186H166.377L158.121 47.6479L167.082 58H162.204L153.568 47.8647V58H149.322V38.0186H153.568V47.7202L161.716 38.0186ZM174.453 38.0186V48.2622C174.453 49.4546 174.356 51.207 174.164 53.5195L184.19 38.0186H189.375V58H185.292V47.937C185.292 47.383 185.323 46.4857 185.383 45.2451C185.455 44.0046 185.515 43.1012 185.563 42.5352L175.573 58H170.388V38.0186H174.453ZM202.004 38.0186H206.629L210.694 49.3462C211.308 50.9601 211.718 52.4777 211.922 53.8989H212.067C212.175 53.2365 212.374 52.4355 212.663 51.4961C212.952 50.5446 214.482 46.0521 217.252 38.0186H221.841L213.295 60.6558C211.742 64.811 209.152 66.8887 205.527 66.8887C204.587 66.8887 203.672 66.7863 202.781 66.5815V63.2212C203.419 63.3657 204.148 63.438 204.967 63.438C207.014 63.438 208.454 62.2516 209.285 59.8789L210.025 58L202.004 38.0186ZM228.616 38.0186V45.3174C228.616 47.3649 229.676 48.3887 231.795 48.3887C232.819 48.3887 233.819 48.2502 234.794 47.9731C235.77 47.6841 236.818 47.2264 237.938 46.6001V38.0186H242.184V58H237.938V49.5269C236.77 50.2495 235.638 50.7855 234.542 51.1348C233.458 51.472 232.271 51.6406 230.982 51.6406C228.899 51.6406 227.273 51.1047 226.104 50.0327C224.936 48.9487 224.352 47.4372 224.352 45.498V38.0186H228.616ZM260.756 58L259.907 55.2178H259.762C258.799 56.4342 257.829 57.2653 256.854 57.7109C255.878 58.1445 254.625 58.3613 253.096 58.3613C251.132 58.3613 249.597 57.8314 248.489 56.7715C247.393 55.7116 246.845 54.2121 246.845 52.2729C246.845 50.2134 247.61 48.6597 249.139 47.6118C250.669 46.564 252.999 45.9919 256.131 45.8955L259.582 45.7871V44.7212C259.582 43.4445 259.28 42.493 258.678 41.8667C258.088 41.2284 257.167 40.9092 255.914 40.9092C254.89 40.9092 253.909 41.0597 252.969 41.3608C252.03 41.6619 251.126 42.0173 250.259 42.4268L248.886 39.3916C249.97 38.8255 251.157 38.3979 252.445 38.1089C253.734 37.8078 254.951 37.6572 256.095 37.6572C258.636 37.6572 260.551 38.2113 261.84 39.3193C263.141 40.4274 263.791 42.1678 263.791 44.5405V58H260.756ZM254.433 55.1094C255.974 55.1094 257.209 54.6818 258.136 53.8267C259.076 52.9595 259.545 51.749 259.545 50.1953V48.4609L256.98 48.5693C254.981 48.6416 253.523 48.9788 252.608 49.5811C251.705 50.1712 251.253 51.0806 251.253 52.3091C251.253 53.2004 251.518 53.8929 252.048 54.3867C252.578 54.8685 253.373 55.1094 254.433 55.1094ZM277.774 58.3613C274.751 58.3613 272.451 57.4821 270.873 55.7236C269.307 53.9531 268.524 51.4178 268.524 48.1177C268.524 44.7573 269.343 42.1738 270.981 40.3672C272.632 38.5605 275.01 37.6572 278.118 37.6572C280.225 37.6572 282.122 38.0487 283.809 38.8315L282.526 42.2461C280.731 41.5475 279.25 41.1982 278.082 41.1982C274.625 41.1982 272.896 43.4927 272.896 48.0815C272.896 50.3218 273.324 52.008 274.179 53.1401C275.046 54.2603 276.311 54.8203 277.973 54.8203C279.864 54.8203 281.653 54.3506 283.339 53.4111V57.1147C282.58 57.5604 281.767 57.8796 280.9 58.0723C280.045 58.265 279.003 58.3613 277.774 58.3613ZM303.049 38.0186V41.3428H296.545V58H292.282V41.3428H285.778V38.0186H303.049ZM311.143 38.0186V46.04H320.556V38.0186H324.801V58H320.556V49.3823H311.143V58H306.897V38.0186H311.143ZM334.955 38.0186V48.2622C334.955 49.4546 334.858 51.207 334.666 53.5195L344.692 38.0186H349.877V58H345.794V47.937C345.794 47.383 345.825 46.4857 345.885 45.2451C345.957 44.0046 346.017 43.1012 346.065 42.5352L336.075 58H330.89V38.0186H334.955ZM368.323 38.0186H372.984L364.728 47.6479L373.689 58H368.811L360.175 47.8647V58H355.93V38.0186H360.175V47.7202L368.323 38.0186ZM389.497 58L388.648 55.2178H388.503C387.54 56.4342 386.57 57.2653 385.595 57.7109C384.619 58.1445 383.367 58.3613 381.837 58.3613C379.874 58.3613 378.338 57.8314 377.23 56.7715C376.134 55.7116 375.586 54.2121 375.586 52.2729C375.586 50.2134 376.351 48.6597 377.88 47.6118C379.41 46.564 381.741 45.9919 384.872 45.8955L388.323 45.7871V44.7212C388.323 43.4445 388.022 42.493 387.419 41.8667C386.829 41.2284 385.908 40.9092 384.655 40.9092C383.632 40.9092 382.65 41.0597 381.71 41.3608C380.771 41.6619 379.868 42.0173 379 42.4268L377.627 39.3916C378.711 38.8255 379.898 38.3979 381.187 38.1089C382.475 37.8078 383.692 37.6572 384.836 37.6572C387.377 37.6572 389.292 38.2113 390.581 39.3193C391.882 40.4274 392.532 42.1678 392.532 44.5405V58H389.497ZM383.174 55.1094C384.715 55.1094 385.95 54.6818 386.877 53.8267C387.817 52.9595 388.287 51.749 388.287 50.1953V48.4609L385.721 48.5693C383.722 48.6416 382.264 48.9788 381.349 49.5811C380.446 50.1712 379.994 51.0806 379.994 52.3091C379.994 53.2004 380.259 53.8929 380.789 54.3867C381.319 54.8685 382.114 55.1094 383.174 55.1094ZM409.93 53.9351L410.165 53.0679C410.659 51.2733 411.086 49.8942 411.448 48.9307L415.928 38.0186H421.583V58H417.663V41.8667L417.337 42.9507C416.795 44.8898 416.338 46.3171 415.964 47.2324L411.592 58H408.376L404.004 47.1602C403.402 45.5944 402.848 43.8299 402.342 41.8667V58H398.458V38.0186H404.077L408.413 48.6055C408.798 49.5811 409.304 51.3576 409.93 53.9351ZM39.4785 98.9287C40.5143 98.9287 41.5501 98.7661 42.5859 98.4409V101.639C42.1162 101.843 41.508 102.012 40.7612 102.145C40.0265 102.289 39.2617 102.361 38.4668 102.361C34.444 102.361 32.4326 100.242 32.4326 96.002V85.2344H29.7046V83.3555L32.6313 81.8018L34.0767 77.5742H36.6963V82.0186H42.3872V85.2344H36.6963V95.9297C36.6963 96.9535 36.9492 97.7122 37.4551 98.2061C37.973 98.6878 38.6475 98.9287 39.4785 98.9287ZM55.3228 102.361C52.2153 102.361 49.7824 101.458 48.0239 99.6514C46.2775 97.8327 45.4043 95.3335 45.4043 92.1538C45.4043 88.8898 46.2173 86.3244 47.8433 84.4575C49.4692 82.5907 51.7035 81.6572 54.5459 81.6572C57.1836 81.6572 59.2673 82.4582 60.7969 84.0601C62.3265 85.6619 63.0913 87.866 63.0913 90.6724V92.9668H49.7764C49.8366 94.9059 50.3605 96.3994 51.3481 97.4473C52.3358 98.4831 53.7269 99.001 55.5215 99.001C56.7018 99.001 57.7979 98.8926 58.8096 98.6758C59.8333 98.4469 60.9294 98.0736 62.0977 97.5557V101.006C61.0618 101.5 60.014 101.849 58.9541 102.054C57.8942 102.259 56.6838 102.361 55.3228 102.361ZM54.5459 84.873C53.1969 84.873 52.113 85.3006 51.2939 86.1558C50.487 87.0109 50.0052 88.2575 49.8486 89.8955H58.918C58.8939 88.2454 58.4964 86.9989 57.7256 86.1558C56.9548 85.3006 55.8949 84.873 54.5459 84.873ZM72.1606 102H67.915V73.8887H72.1606V102ZM86.9751 102.361C83.8677 102.361 81.4347 101.458 79.6763 99.6514C77.9299 97.8327 77.0566 95.3335 77.0566 92.1538C77.0566 88.8898 77.8696 86.3244 79.4956 84.4575C81.1216 82.5907 83.3558 81.6572 86.1982 81.6572C88.8359 81.6572 90.9196 82.4582 92.4492 84.0601C93.9788 85.6619 94.7437 87.866 94.7437 90.6724V92.9668H81.4287C81.4889 94.9059 82.0129 96.3994 83.0005 97.4473C83.9881 98.4831 85.3792 99.001 87.1738 99.001C88.3542 99.001 89.4502 98.8926 90.4619 98.6758C91.4857 98.4469 92.5817 98.0736 93.75 97.5557V101.006C92.7142 101.5 91.6663 101.849 90.6064 102.054C89.5465 102.259 88.3361 102.361 86.9751 102.361ZM86.1982 84.873C84.8493 84.873 83.7653 85.3006 82.9463 86.1558C82.1393 87.0109 81.6576 88.2575 81.501 89.8955H90.5703C90.5462 88.2454 90.1488 86.9989 89.3779 86.1558C88.6071 85.3006 87.5472 84.873 86.1982 84.873ZM116.441 82.0186V84.3491L113.027 84.9814C113.34 85.403 113.599 85.9209 113.804 86.5352C114.008 87.1494 114.111 87.7998 114.111 88.4863C114.111 90.5459 113.4 92.1659 111.979 93.3462C110.558 94.5265 108.601 95.1167 106.107 95.1167C105.469 95.1167 104.891 95.0685 104.373 94.9722C103.458 95.5382 103 96.2007 103 96.9595C103 97.4172 103.211 97.7604 103.632 97.9893C104.066 98.2181 104.855 98.3325 105.999 98.3325H109.486C111.69 98.3325 113.364 98.8022 114.508 99.7417C115.653 100.681 116.225 102.036 116.225 103.807C116.225 106.071 115.291 107.817 113.424 109.046C111.557 110.274 108.86 110.889 105.331 110.889C102.609 110.889 100.531 110.407 99.0977 109.443C97.6644 108.48 96.9478 107.107 96.9478 105.324C96.9478 104.096 97.3332 103.06 98.104 102.217C98.8869 101.386 99.9769 100.808 101.374 100.482C100.808 100.242 100.338 99.8561 99.9648 99.3262C99.6035 98.7842 99.4229 98.2181 99.4229 97.6279C99.4229 96.8812 99.6336 96.2489 100.055 95.731C100.477 95.2131 101.103 94.7012 101.934 94.1953C100.898 93.7497 100.055 93.027 99.4048 92.0273C98.7664 91.0156 98.4473 89.8353 98.4473 88.4863C98.4473 86.3184 99.1278 84.6382 100.489 83.4458C101.862 82.2534 103.813 81.6572 106.342 81.6572C106.908 81.6572 107.499 81.6994 108.113 81.7837C108.739 81.856 109.209 81.9342 109.522 82.0186H116.441ZM100.742 105.107C100.742 106.023 101.151 106.727 101.97 107.221C102.801 107.715 103.964 107.962 105.457 107.962C107.77 107.962 109.492 107.631 110.624 106.968C111.756 106.306 112.322 105.427 112.322 104.331C112.322 103.463 112.009 102.843 111.383 102.47C110.769 102.108 109.618 101.928 107.932 101.928H104.716C103.5 101.928 102.53 102.211 101.808 102.777C101.097 103.355 100.742 104.132 100.742 105.107ZM102.566 88.4863C102.566 89.7389 102.886 90.7025 103.524 91.377C104.174 92.0514 105.102 92.3887 106.306 92.3887C108.763 92.3887 109.992 91.0758 109.992 88.4502C109.992 87.1494 109.685 86.1497 109.07 85.4512C108.468 84.7406 107.547 84.3853 106.306 84.3853C105.078 84.3853 104.144 84.7345 103.506 85.4331C102.88 86.1317 102.566 87.1494 102.566 88.4863ZM130.298 81.6572C131.153 81.6572 131.858 81.7174 132.412 81.8379L131.997 85.7944C131.394 85.6499 130.768 85.5776 130.118 85.5776C128.419 85.5776 127.04 86.1317 125.98 87.2397C124.933 88.3478 124.409 89.7871 124.409 91.5576V102H120.163V82.0186H123.487L124.047 85.5415H124.264C124.927 84.3491 125.788 83.4036 126.848 82.7051C127.92 82.0065 129.07 81.6572 130.298 81.6572ZM147.877 102L147.028 99.2178H146.883C145.92 100.434 144.95 101.265 143.975 101.711C142.999 102.145 141.746 102.361 140.217 102.361C138.254 102.361 136.718 101.831 135.61 100.771C134.514 99.7116 133.966 98.2121 133.966 96.2729C133.966 94.2134 134.731 92.6597 136.26 91.6118C137.79 90.564 140.12 89.9919 143.252 89.8955L146.703 89.7871V88.7212C146.703 87.4445 146.402 86.493 145.799 85.8667C145.209 85.2284 144.288 84.9092 143.035 84.9092C142.011 84.9092 141.03 85.0597 140.09 85.3608C139.151 85.6619 138.248 86.0173 137.38 86.4268L136.007 83.3916C137.091 82.8255 138.278 82.3979 139.566 82.1089C140.855 81.8078 142.072 81.6572 143.216 81.6572C145.757 81.6572 147.672 82.2113 148.961 83.3193C150.262 84.4274 150.912 86.1678 150.912 88.5405V102H147.877ZM141.554 99.1094C143.095 99.1094 144.33 98.6818 145.257 97.8267C146.197 96.9595 146.667 95.749 146.667 94.1953V92.4609L144.101 92.5693C142.102 92.6416 140.644 92.9788 139.729 93.5811C138.826 94.1712 138.374 95.0806 138.374 96.3091C138.374 97.2004 138.639 97.8929 139.169 98.3867C139.699 98.8685 140.494 99.1094 141.554 99.1094ZM173.676 102H169.412V89.6787C169.412 88.1491 169.123 87.0109 168.545 86.2642C167.967 85.5054 167.063 85.126 165.835 85.126C164.197 85.126 162.993 85.6619 162.222 86.7339C161.463 87.7938 161.083 89.5643 161.083 92.0454V102H156.838V82.0186H160.162L160.758 84.6382H160.975C161.529 83.6867 162.33 82.952 163.378 82.4341C164.438 81.9162 165.6 81.6572 166.865 81.6572C169.936 81.6572 171.972 82.7051 172.971 84.8008H173.26C173.85 83.8132 174.681 83.0423 175.753 82.4883C176.825 81.9342 178.054 81.6572 179.439 81.6572C181.824 81.6572 183.558 82.2594 184.642 83.4639C185.738 84.6683 186.286 86.505 186.286 88.9741V102H182.041V89.6787C182.041 88.1491 181.745 87.0109 181.155 86.2642C180.577 85.5054 179.674 85.126 178.445 85.126C176.795 85.126 175.585 85.6439 174.814 86.6797C174.055 87.7035 173.676 89.2812 173.676 91.4131V102ZM190.478 93.8882V90.2749H199.764V93.8882H190.478ZM216.529 82.0186H221.19L212.934 91.6479L221.895 102H217.017L208.381 91.8647V102H204.136V82.0186H208.381V91.7202L216.529 82.0186ZM237.703 102L236.854 99.2178H236.709C235.746 100.434 234.776 101.265 233.801 101.711C232.825 102.145 231.573 102.361 230.043 102.361C228.08 102.361 226.544 101.831 225.436 100.771C224.34 99.7116 223.792 98.2121 223.792 96.2729C223.792 94.2134 224.557 92.6597 226.086 91.6118C227.616 90.564 229.947 89.9919 233.078 89.8955L236.529 89.7871V88.7212C236.529 87.4445 236.228 86.493 235.625 85.8667C235.035 85.2284 234.114 84.9092 232.861 84.9092C231.838 84.9092 230.856 85.0597 229.917 85.3608C228.977 85.6619 228.074 86.0173 227.207 86.4268L225.833 83.3916C226.917 82.8255 228.104 82.3979 229.393 82.1089C230.681 81.8078 231.898 81.6572 233.042 81.6572C235.583 81.6572 237.498 82.2113 238.787 83.3193C240.088 84.4274 240.738 86.1678 240.738 88.5405V102H237.703ZM231.38 99.1094C232.922 99.1094 234.156 98.6818 235.083 97.8267C236.023 96.9595 236.493 95.749 236.493 94.1953V92.4609L233.927 92.5693C231.928 92.6416 230.471 92.9788 229.555 93.5811C228.652 94.1712 228.2 95.0806 228.2 96.3091C228.2 97.2004 228.465 97.8929 228.995 98.3867C229.525 98.8685 230.32 99.1094 231.38 99.1094ZM250.91 82.0186V90.04H260.322V82.0186H264.568V102H260.322V93.3823H250.91V102H246.664V82.0186H250.91ZM283.158 102L282.309 99.2178H282.165C281.201 100.434 280.231 101.265 279.256 101.711C278.28 102.145 277.028 102.361 275.498 102.361C273.535 102.361 271.999 101.831 270.891 100.771C269.795 99.7116 269.247 98.2121 269.247 96.2729C269.247 94.2134 270.012 92.6597 271.542 91.6118C273.071 90.564 275.402 89.9919 278.533 89.8955L281.984 89.7871V88.7212C281.984 87.4445 281.683 86.493 281.081 85.8667C280.49 85.2284 279.569 84.9092 278.316 84.9092C277.293 84.9092 276.311 85.0597 275.372 85.3608C274.432 85.6619 273.529 86.0173 272.662 86.4268L271.289 83.3916C272.373 82.8255 273.559 82.3979 274.848 82.1089C276.136 81.8078 277.353 81.6572 278.497 81.6572C281.038 81.6572 282.953 82.2113 284.242 83.3193C285.543 84.4274 286.193 86.1678 286.193 88.5405V102H283.158ZM276.835 99.1094C278.377 99.1094 279.611 98.6818 280.539 97.8267C281.478 96.9595 281.948 95.749 281.948 94.1953V92.4609L279.382 92.5693C277.383 92.6416 275.926 92.9788 275.01 93.5811C274.107 94.1712 273.655 95.0806 273.655 96.3091C273.655 97.2004 273.92 97.8929 274.45 98.3867C274.98 98.8685 275.775 99.1094 276.835 99.1094ZM308.542 102H304.26V85.3428H298.75C298.412 89.6305 297.955 92.9788 297.376 95.3877C296.81 97.7965 296.064 99.555 295.136 100.663C294.221 101.771 293.028 102.325 291.559 102.325C290.632 102.325 289.855 102.193 289.229 101.928V98.6035C289.674 98.7721 290.12 98.8564 290.565 98.8564C291.794 98.8564 292.757 97.4774 293.456 94.7192C294.167 91.9491 294.721 87.7155 295.118 82.0186H308.542V102ZM327.132 102L326.283 99.2178H326.138C325.175 100.434 324.205 101.265 323.229 101.711C322.254 102.145 321.001 102.361 319.472 102.361C317.508 102.361 315.973 101.831 314.865 100.771C313.769 99.7116 313.221 98.2121 313.221 96.2729C313.221 94.2134 313.986 92.6597 315.515 91.6118C317.045 90.564 319.375 89.9919 322.507 89.8955L325.958 89.7871V88.7212C325.958 87.4445 325.656 86.493 325.054 85.8667C324.464 85.2284 323.543 84.9092 322.29 84.9092C321.266 84.9092 320.285 85.0597 319.345 85.3608C318.406 85.6619 317.502 86.0173 316.635 86.4268L315.262 83.3916C316.346 82.8255 317.533 82.3979 318.821 82.1089C320.11 81.8078 321.326 81.6572 322.471 81.6572C325.012 81.6572 326.927 82.2113 328.216 83.3193C329.517 84.4274 330.167 86.1678 330.167 88.5405V102H327.132ZM320.809 99.1094C322.35 99.1094 323.585 98.6818 324.512 97.8267C325.452 96.9595 325.921 95.749 325.921 94.1953V92.4609L323.356 92.5693C321.357 92.6416 319.899 92.9788 318.984 93.5811C318.081 94.1712 317.629 95.0806 317.629 96.3091C317.629 97.2004 317.894 97.8929 318.424 98.3867C318.954 98.8685 319.749 99.1094 320.809 99.1094Z" fill="white"/>
<path fill-rule="evenodd" clip-rule="evenodd" d="M452.293 189.371C451.824 190.876 450.92 192.208 449.696 193.193C448.472 194.178 446.986 194.771 445.428 194.897C443.871 195.022 442.314 194.674 440.958 193.897C439.602 193.12 438.509 191.95 437.821 190.537C430.929 182.062 420.008 169.648 420.008 169.648C420.008 169.648 407.027 184.355 404.979 185.708C404.323 186.061 403.603 186.273 402.862 186.329C402.122 186.385 401.378 186.284 400.679 186.033C399.981 185.782 399.343 185.387 398.806 184.872C398.269 184.357 397.845 183.734 397.561 183.044C397.531 182.762 397.485 182.483 397.421 182.207L408.402 156.699L453.981 127.463L396.39 146.02C396.39 146.02 374.743 134.067 371.598 131.964C370.817 131.285 370.243 130.395 369.943 129.397C369.643 128.4 369.63 127.337 369.904 126.329C370.178 125.322 370.729 124.413 371.493 123.707C372.257 123.001 373.204 122.527 374.222 122.34C379.65 120.873 473.025 106.09 476.111 105.855C479.198 105.621 487.315 105.029 484.865 112.357C482.415 119.685 454.017 185.43 452.293 189.371Z" fill="white"/>
</g>
<defs>
<clipPath id="clip0_933_1876">
<rect width="494" height="182" rx="20" fill="white"/>
</clipPath>
</defs>
</svg>
