<svg width="494" height="182" viewBox="0 0 494 182" fill="none" xmlns="http://www.w3.org/2000/svg">
<g clip-path="url(#clip0_933_1881)">
<rect width="494" height="182" rx="20" fill="#F5664A"/>
<path d="M47.5298 58H29.626V54.7842L36.437 47.937C38.4484 45.8774 39.7793 44.4201 40.4297 43.5649C41.0921 42.6978 41.5739 41.8848 41.875 41.126C42.1761 40.3672 42.3267 39.5542 42.3267 38.687C42.3267 37.4946 41.9653 36.5552 41.2427 35.8687C40.5321 35.1821 39.5444 34.8389 38.2798 34.8389C37.2681 34.8389 36.2865 35.0256 35.335 35.3989C34.3955 35.7723 33.3055 36.4468 32.0649 37.4224L29.7705 34.6221C31.2399 33.3815 32.6672 32.5023 34.0522 31.9844C35.4373 31.4665 36.9128 31.2075 38.4785 31.2075C40.9355 31.2075 42.9048 31.8519 44.3862 33.1406C45.8677 34.4173 46.6084 36.1396 46.6084 38.3076C46.6084 39.5 46.3916 40.6322 45.958 41.7041C45.5365 42.776 44.88 43.8841 43.9888 45.0283C43.1095 46.1605 41.6401 47.6961 39.5806 49.6353L34.9917 54.0796V54.2603H47.5298V58ZM68.6675 44.7935C68.6675 49.3823 67.9268 52.7909 66.4453 55.019C64.9759 57.2472 62.7236 58.3613 59.6885 58.3613C56.7497 58.3613 54.5215 57.2111 53.0039 54.9106C51.4863 52.6102 50.7275 49.2378 50.7275 44.7935C50.7275 40.1323 51.4622 36.6997 52.9316 34.4956C54.4131 32.2795 56.6654 31.1714 59.6885 31.1714C62.6393 31.1714 64.8735 32.3276 66.3911 34.6401C67.9087 36.9526 68.6675 40.3371 68.6675 44.7935ZM55.0273 44.7935C55.0273 48.3947 55.3947 50.9661 56.1294 52.5078C56.8761 54.0495 58.0625 54.8203 59.6885 54.8203C61.3145 54.8203 62.5008 54.0374 63.2476 52.4717C64.0063 50.9059 64.3857 48.3465 64.3857 44.7935C64.3857 41.2524 64.0063 38.693 63.2476 37.1152C62.5008 35.5254 61.3145 34.7305 59.6885 34.7305C58.0625 34.7305 56.8761 35.5073 56.1294 37.061C55.3947 38.6147 55.0273 41.1922 55.0273 44.7935ZM89.8052 44.7935C89.8052 49.3823 89.0645 52.7909 87.583 55.019C86.1136 57.2472 83.8613 58.3613 80.8262 58.3613C77.8874 58.3613 75.6592 57.2111 74.1416 54.9106C72.624 52.6102 71.8652 49.2378 71.8652 44.7935C71.8652 40.1323 72.5999 36.6997 74.0693 34.4956C75.5508 32.2795 77.8031 31.1714 80.8262 31.1714C83.777 31.1714 86.0112 32.3276 87.5288 34.6401C89.0464 36.9526 89.8052 40.3371 89.8052 44.7935ZM76.165 44.7935C76.165 48.3947 76.5324 50.9661 77.2671 52.5078C78.0138 54.0495 79.2002 54.8203 80.8262 54.8203C82.4521 54.8203 83.6385 54.0374 84.3853 52.4717C85.144 50.9059 85.5234 48.3465 85.5234 44.7935C85.5234 41.2524 85.144 38.693 84.3853 37.1152C83.6385 35.5254 82.4521 34.7305 80.8262 34.7305C79.2002 34.7305 78.0138 35.5073 77.2671 37.061C76.5324 38.6147 76.165 41.1922 76.165 44.7935ZM110.943 44.7935C110.943 49.3823 110.202 52.7909 108.721 55.019C107.251 57.2472 104.999 58.3613 101.964 58.3613C99.0251 58.3613 96.7969 57.2111 95.2793 54.9106C93.7617 52.6102 93.0029 49.2378 93.0029 44.7935C93.0029 40.1323 93.7376 36.6997 95.207 34.4956C96.6885 32.2795 98.9408 31.1714 101.964 31.1714C104.915 31.1714 107.149 32.3276 108.667 34.6401C110.184 36.9526 110.943 40.3371 110.943 44.7935ZM97.3027 44.7935C97.3027 48.3947 97.6701 50.9661 98.4048 52.5078C99.1515 54.0495 100.338 54.8203 101.964 54.8203C103.59 54.8203 104.776 54.0374 105.523 52.4717C106.282 50.9059 106.661 48.3465 106.661 44.7935C106.661 41.2524 106.282 38.693 105.523 37.1152C104.776 35.5254 103.59 34.7305 101.964 34.7305C100.338 34.7305 99.1515 35.5073 98.4048 37.061C97.6701 38.6147 97.3027 41.1922 97.3027 44.7935ZM135.333 58.3613C132.803 58.3613 130.84 57.452 129.443 55.6333H129.19C129.359 57.3195 129.443 58.3433 129.443 58.7046V66.8887H125.197V38.0186H128.63C128.726 38.3919 128.925 39.2832 129.226 40.6924H129.443C130.768 38.6689 132.755 37.6572 135.405 37.6572C137.898 37.6572 139.837 38.5605 141.222 40.3672C142.619 42.1738 143.318 44.7091 143.318 47.9731C143.318 51.2371 142.607 53.7845 141.186 55.6152C139.777 57.446 137.826 58.3613 135.333 58.3613ZM134.303 41.126C132.617 41.126 131.382 41.6198 130.599 42.6074C129.828 43.5951 129.443 45.1729 129.443 47.3408V47.9731C129.443 50.4061 129.828 52.1706 130.599 53.2666C131.37 54.3506 132.629 54.8926 134.375 54.8926C135.844 54.8926 136.977 54.2904 137.771 53.0859C138.566 51.8815 138.964 50.1652 138.964 47.937C138.964 45.6968 138.566 44.0046 137.771 42.8604C136.989 41.7041 135.832 41.126 134.303 41.126ZM145.215 38.0186H149.84L153.905 49.3462C154.519 50.9601 154.929 52.4777 155.133 53.8989H155.278C155.386 53.2365 155.585 52.4355 155.874 51.4961C156.163 50.5446 157.693 46.0521 160.463 38.0186H165.052L156.506 60.6558C154.953 64.811 152.363 66.8887 148.738 66.8887C147.798 66.8887 146.883 66.7863 145.992 66.5815V63.2212C146.63 63.3657 147.359 63.438 148.178 63.438C150.225 63.438 151.665 62.2516 152.496 59.8789L153.236 58L145.215 38.0186ZM166.931 46.0039C166.931 41.5475 167.683 38.1209 169.189 35.7241C170.707 33.3273 173.115 31.7856 176.416 31.0991C178.909 30.5933 181.781 30.0994 185.033 29.6177L185.629 33.3574C181.679 33.9596 178.788 34.4294 176.958 34.7666C175.067 35.1159 173.7 35.8927 172.856 37.0972C172.025 38.3016 171.544 40.1143 171.411 42.5352H171.682C172.369 41.5355 173.266 40.7646 174.374 40.2227C175.482 39.6686 176.668 39.3916 177.933 39.3916C180.39 39.3916 182.305 40.1685 183.678 41.7222C185.051 43.2759 185.738 45.4559 185.738 48.2622C185.738 51.478 184.901 53.9652 183.227 55.7236C181.564 57.4821 179.258 58.3613 176.307 58.3613C173.38 58.3613 171.086 57.2773 169.424 55.1094C167.762 52.9414 166.931 49.9062 166.931 46.0039ZM176.596 54.8926C179.752 54.8926 181.33 52.821 181.33 48.6777C181.33 44.679 179.902 42.6797 177.048 42.6797C176.265 42.6797 175.506 42.8483 174.771 43.1855C174.037 43.5228 173.356 43.9684 172.73 44.5225C172.116 45.0765 171.64 45.6486 171.303 46.2388C171.303 49.0812 171.754 51.2371 172.658 52.7065C173.561 54.1639 174.874 54.8926 176.596 54.8926ZM207.056 58H202.774V41.3428H197.264C196.927 45.6305 196.469 48.9788 195.891 51.3877C195.325 53.7965 194.578 55.555 193.651 56.6631C192.736 57.7712 191.543 58.3252 190.074 58.3252C189.146 58.3252 188.369 58.1927 187.743 57.9277V54.6035C188.189 54.7721 188.634 54.8564 189.08 54.8564C190.309 54.8564 191.272 53.4774 191.971 50.7192C192.681 47.9491 193.235 43.7155 193.633 38.0186H207.056V58ZM221.871 58.3613C218.763 58.3613 216.33 57.458 214.572 55.6514C212.825 53.8327 211.952 51.3335 211.952 48.1538C211.952 44.8898 212.765 42.3244 214.391 40.4575C216.017 38.5907 218.251 37.6572 221.094 37.6572C223.731 37.6572 225.815 38.4582 227.345 40.0601C228.874 41.6619 229.639 43.866 229.639 46.6724V48.9668H216.324C216.384 50.9059 216.908 52.3994 217.896 53.4473C218.884 54.4831 220.275 55.001 222.069 55.001C223.25 55.001 224.346 54.8926 225.357 54.6758C226.381 54.4469 227.477 54.0736 228.646 53.5557V57.0063C227.61 57.5002 226.562 57.8494 225.502 58.0542C224.442 58.259 223.232 58.3613 221.871 58.3613ZM221.094 40.873C219.745 40.873 218.661 41.3006 217.842 42.1558C217.035 43.0109 216.553 44.2575 216.396 45.8955H225.466C225.442 44.2454 225.044 42.9989 224.273 42.1558C223.503 41.3006 222.443 40.873 221.094 40.873ZM238.528 38.0186V48.2622C238.528 49.4546 238.431 51.207 238.239 53.5195L248.266 38.0186H253.451V58H249.368V47.937C249.368 47.383 249.398 46.4857 249.458 45.2451C249.53 44.0046 249.59 43.1012 249.639 42.5352L239.648 58H234.463V38.0186H238.528ZM243.821 35.5796C241.268 35.5796 239.395 35.1219 238.203 34.2065C237.022 33.2791 236.366 31.7375 236.233 29.5815H240.082C240.154 30.4487 240.316 31.1232 240.569 31.605C240.834 32.0868 241.208 32.436 241.689 32.6528C242.183 32.8576 242.93 32.96 243.93 32.96C245.11 32.96 246.007 32.701 246.622 32.1831C247.236 31.6532 247.609 30.786 247.742 29.5815H251.662C251.481 31.6532 250.753 33.1707 249.476 34.1343C248.199 35.0978 246.314 35.5796 243.821 35.5796ZM35.4434 89.0039C37.3825 89.0039 38.8097 88.7931 39.7251 88.3716C40.6405 87.938 41.0981 87.2756 41.0981 86.3843C41.0981 84.7583 39.6528 83.9453 36.7622 83.9453C34.8351 83.9453 32.8659 84.3789 30.8545 85.2461L29.4814 82.0845C31.806 81.133 34.3714 80.6572 37.1777 80.6572C39.6589 80.6572 41.5859 81.1149 42.959 82.0303C44.332 82.9336 45.0186 84.2344 45.0186 85.9326C45.0186 88.1729 43.7358 89.6423 41.1704 90.3408V90.4854C42.7723 90.9189 43.9165 91.5392 44.603 92.3462C45.3016 93.1532 45.6509 94.1528 45.6509 95.3452C45.6509 97.1759 44.8439 98.6393 43.23 99.7354C41.6281 100.819 39.3879 101.361 36.5093 101.361C33.3657 101.361 30.9629 100.946 29.3008 100.115V96.4473C31.5049 97.4831 33.7873 98.001 36.1479 98.001C37.8462 98.001 39.153 97.7661 40.0684 97.2964C40.9958 96.8146 41.4595 96.0859 41.4595 95.1104C41.4595 94.1107 40.9958 93.376 40.0684 92.9062C39.141 92.4365 37.7077 92.2017 35.7686 92.2017H33.3296V89.0039H35.4434ZM62.7598 101L61.9106 98.2178H61.7661C60.8026 99.4342 59.833 100.265 58.8574 100.711C57.8818 101.145 56.6292 101.361 55.0996 101.361C53.1364 101.361 51.6007 100.831 50.4927 99.7715C49.3966 98.7116 48.8486 97.2121 48.8486 95.2729C48.8486 93.2134 49.6134 91.6597 51.1431 90.6118C52.6727 89.564 55.0033 88.9919 58.1348 88.8955L61.5854 88.7871V87.7212C61.5854 86.4445 61.2843 85.493 60.6821 84.8667C60.092 84.2284 59.1706 83.9092 57.918 83.9092C56.8942 83.9092 55.9126 84.0597 54.9731 84.3608C54.0337 84.6619 53.1304 85.0173 52.2632 85.4268L50.8901 82.3916C51.9741 81.8255 53.1605 81.3979 54.4492 81.1089C55.738 80.8078 56.9544 80.6572 58.0986 80.6572C60.64 80.6572 62.555 81.2113 63.8438 82.3193C65.1445 83.4274 65.7949 85.1678 65.7949 87.5405V101H62.7598ZM56.4365 98.1094C57.9782 98.1094 59.2127 97.6818 60.1401 96.8267C61.0796 95.9595 61.5493 94.749 61.5493 93.1953V91.4609L58.9839 91.5693C56.9845 91.6416 55.5272 91.9788 54.6118 92.5811C53.7085 93.1712 53.2568 94.0806 53.2568 95.3091C53.2568 96.2004 53.5218 96.8929 54.0518 97.3867C54.5817 97.8685 55.3766 98.1094 56.4365 98.1094ZM98.6758 86.1313C98.6758 88.492 97.2967 89.9193 94.5386 90.4131V90.5576C96.0802 90.7383 97.2606 91.2261 98.0796 92.021C98.8986 92.8159 99.3081 93.8457 99.3081 95.1104C99.3081 97.0013 98.5854 98.4587 97.1401 99.4824C95.7069 100.494 93.6172 101 90.8711 101H81.332V81.0186H90.835C96.0622 81.0186 98.6758 82.7228 98.6758 86.1313ZM94.9541 94.8574C94.9541 93.8939 94.5807 93.2134 93.834 92.8159C93.0872 92.4064 91.9671 92.2017 90.4736 92.2017H85.5776V97.8564H90.582C93.4967 97.8564 94.9541 96.8568 94.9541 94.8574ZM94.4302 86.4927C94.4302 85.6978 94.117 85.1257 93.4907 84.7764C92.8765 84.415 91.9551 84.2344 90.7266 84.2344H85.5776V89.04H90.0942C91.5155 89.04 92.5934 88.8594 93.3281 88.498C94.0628 88.1247 94.4302 87.4562 94.4302 86.4927ZM107.763 81.0186V91.2622C107.763 92.4546 107.667 94.207 107.474 96.5195L117.501 81.0186H122.686V101H118.603V90.937C118.603 90.383 118.633 89.4857 118.693 88.2451C118.766 87.0046 118.826 86.1012 118.874 85.5352L108.883 101H103.698V81.0186H107.763ZM147.907 108.064H143.95V101H130.256V108.064H126.335V97.7119H127.961C129.383 95.6764 130.509 93.2194 131.34 90.3408C132.183 87.4502 132.683 84.3428 132.839 81.0186H144.98V97.7119H147.907V108.064ZM140.807 97.7119V84.2705H136.507C136.278 86.7516 135.796 89.1966 135.062 91.6055C134.339 94.0143 133.454 96.0498 132.406 97.7119H140.807ZM160.336 101.361C157.229 101.361 154.796 100.458 153.038 98.6514C151.291 96.8327 150.418 94.3335 150.418 91.1538C150.418 87.8898 151.231 85.3244 152.857 83.4575C154.483 81.5907 156.717 80.6572 159.56 80.6572C162.197 80.6572 164.281 81.4582 165.811 83.0601C167.34 84.6619 168.105 86.866 168.105 89.6724V91.9668H154.79C154.85 93.9059 155.374 95.3994 156.362 96.4473C157.349 97.4831 158.741 98.001 160.535 98.001C161.715 98.001 162.812 97.8926 163.823 97.6758C164.847 97.4469 165.943 97.0736 167.111 96.5557V100.006C166.076 100.5 165.028 100.849 163.968 101.054C162.908 101.259 161.697 101.361 160.336 101.361ZM159.56 83.873C158.211 83.873 157.127 84.3006 156.308 85.1558C155.501 86.0109 155.019 87.2575 154.862 88.8955H163.932C163.908 87.2454 163.51 85.9989 162.739 85.1558C161.968 84.3006 160.909 83.873 159.56 83.873ZM190.652 90.9731C190.652 94.2371 189.815 96.7845 188.141 98.6152C186.466 100.446 184.136 101.361 181.149 101.361C179.282 101.361 177.632 100.94 176.199 100.097C174.765 99.2536 173.663 98.0431 172.893 96.4653C172.122 94.8875 171.736 93.0568 171.736 90.9731C171.736 87.7332 172.567 85.2039 174.229 83.3853C175.892 81.5666 178.234 80.6572 181.257 80.6572C184.148 80.6572 186.436 81.5907 188.123 83.4575C189.809 85.3123 190.652 87.8175 190.652 90.9731ZM176.108 90.9731C176.108 95.5861 177.813 97.8926 181.221 97.8926C184.594 97.8926 186.28 95.5861 186.28 90.9731C186.28 86.4084 184.582 84.126 181.185 84.126C179.403 84.126 178.108 84.7161 177.301 85.8965C176.506 87.0768 176.108 88.769 176.108 90.9731ZM213.271 90.9731C213.271 94.2371 212.434 96.7845 210.76 98.6152C209.086 100.446 206.755 101.361 203.768 101.361C201.901 101.361 200.251 100.94 198.818 100.097C197.385 99.2536 196.283 98.0431 195.512 96.4653C194.741 94.8875 194.355 93.0568 194.355 90.9731C194.355 87.7332 195.187 85.2039 196.849 83.3853C198.511 81.5666 200.853 80.6572 203.876 80.6572C206.767 80.6572 209.056 81.5907 210.742 83.4575C212.428 85.3123 213.271 87.8175 213.271 90.9731ZM198.728 90.9731C198.728 95.5861 200.432 97.8926 203.84 97.8926C207.213 97.8926 208.899 95.5861 208.899 90.9731C208.899 86.4084 207.201 84.126 203.804 84.126C202.022 84.126 200.727 84.7161 199.92 85.8965C199.125 87.0768 198.728 88.769 198.728 90.9731ZM233.18 81.0186V84.3428H226.676V101H222.413V84.3428H215.909V81.0186H233.18ZM241.437 89.0039C243.376 89.0039 244.803 88.7931 245.718 88.3716C246.634 87.938 247.091 87.2756 247.091 86.3843C247.091 84.7583 245.646 83.9453 242.755 83.9453C240.828 83.9453 238.859 84.3789 236.848 85.2461L235.475 82.0845C237.799 81.133 240.365 80.6572 243.171 80.6572C245.652 80.6572 247.579 81.1149 248.952 82.0303C250.325 82.9336 251.012 84.2344 251.012 85.9326C251.012 88.1729 249.729 89.6423 247.164 90.3408V90.4854C248.765 90.9189 249.91 91.5392 250.596 92.3462C251.295 93.1532 251.644 94.1528 251.644 95.3452C251.644 97.1759 250.837 98.6393 249.223 99.7354C247.621 100.819 245.381 101.361 242.502 101.361C239.359 101.361 236.956 100.946 235.294 100.115V96.4473C237.498 97.4831 239.78 98.001 242.141 98.001C243.839 98.001 245.146 97.7661 246.062 97.2964C246.989 96.8146 247.453 96.0859 247.453 95.1104C247.453 94.1107 246.989 93.376 246.062 92.9062C245.134 92.4365 243.701 92.2017 241.762 92.2017H239.323V89.0039H241.437ZM260.497 89.0039H264.543C267.338 89.0039 269.403 89.4857 270.74 90.4492C272.077 91.4128 272.746 92.8581 272.746 94.7852C272.746 96.8447 272.047 98.3984 270.65 99.4463C269.265 100.482 267.229 101 264.543 101H256.251V81.0186H260.497V89.0039ZM268.536 94.8936C268.536 93.8939 268.163 93.1953 267.416 92.7979C266.681 92.4004 265.621 92.2017 264.236 92.2017H260.497V97.8564H263.694C265.405 97.8564 266.639 97.6156 267.398 97.1338C268.157 96.652 268.536 95.9053 268.536 94.8936ZM280.153 101H275.889V81.0186H280.153V101ZM303.585 86.1313C303.585 88.492 302.206 89.9193 299.448 90.4131V90.5576C300.989 90.7383 302.17 91.2261 302.989 92.021C303.808 92.8159 304.217 93.8457 304.217 95.1104C304.217 97.0013 303.495 98.4587 302.049 99.4824C300.616 100.494 298.526 101 295.78 101H286.241V81.0186H295.744C300.971 81.0186 303.585 82.7228 303.585 86.1313ZM299.863 94.8574C299.863 93.8939 299.49 93.2134 298.743 92.8159C297.996 92.4064 296.876 92.2017 295.383 92.2017H290.487V97.8564H295.491C298.406 97.8564 299.863 96.8568 299.863 94.8574ZM299.339 86.4927C299.339 85.6978 299.026 85.1257 298.4 84.7764C297.786 84.415 296.864 84.2344 295.636 84.2344H290.487V89.04H295.003C296.425 89.04 297.503 88.8594 298.237 88.498C298.972 88.1247 299.339 87.4562 299.339 86.4927Z" fill="white"/>
<path d="M432.717 107.543H373.717C367.817 107.543 363 112.36 363 118.283V177.283C363 183.183 367.817 188 373.717 188H432.717C438.64 188 443.434 183.183 443.434 177.283V118.283C443.457 112.36 438.64 107.543 432.717 107.543ZM448.827 134.37V161.196L481 177.283V118.283L448.827 134.37ZM379.087 102.173C387.983 102.173 395.173 94.9598 395.173 86.0867C395.173 77.2137 387.983 70 379.087 70C370.214 70 363 77.2137 363 86.0867C363 94.9598 370.214 102.173 379.087 102.173ZM427.37 70C418.474 70 411.283 77.2137 411.283 86.0867C411.283 94.9598 418.497 102.173 427.37 102.173C436.266 102.173 443.457 94.9598 443.457 86.0867C443.457 77.2137 436.243 70 427.37 70Z" fill="white"/>
</g>
<defs>
<clipPath id="clip0_933_1881">
<rect width="494" height="182" rx="20" fill="white"/>
</clipPath>
</defs>
</svg>
