<svg width="15" height="16" viewBox="0 0 15 16" fill="none" xmlns="http://www.w3.org/2000/svg">
<path d="M7.5 0.5C3.3675 0.5 0 3.8675 0 8C0 12.1325 3.3675 15.5 7.5 15.5C11.6325 15.5 15 12.1325 15 8C15 3.8675 11.6325 0.5 7.5 0.5ZM10.7625 10.6775C10.6575 10.8575 10.47 10.955 10.275 10.955C10.1775 10.955 10.08 10.9325 9.99 10.8725L7.665 9.485C7.0875 9.14 6.66 8.3825 6.66 7.715V4.64C6.66 4.3325 6.915 4.0775 7.2225 4.0775C7.53 4.0775 7.785 4.3325 7.785 4.64V7.715C7.785 7.985 8.01 8.3825 8.2425 8.5175L10.5675 9.905C10.8375 10.0625 10.9275 10.4075 10.7625 10.6775Z" fill="#1B88CB"/>
</svg>
